<svg width="57" height="61" viewBox="0 0 57 61" fill="none" xmlns="http://www.w3.org/2000/svg">
<path d="M26.5667 0.833374C9.4667 0.833374 -2.18364 18.1599 4.26812 33.996L7.02629 40.7661C7.2731 41.3719 7.09268 42.0679 6.58264 42.4775L0.750316 47.1613C0.260923 47.5544 0.072871 48.2135 0.281193 48.8056C0.489514 49.3977 1.04884 49.7938 1.67651 49.7938H24.8115C39.0788 49.7938 50.6447 38.2279 50.6447 23.9606C50.6447 11.1878 40.2903 0.833374 27.5175 0.833374H26.5667Z" fill="#3B82F6"/>
<path d="M27.9861 49.4784L27.9881 49.4754C27.9875 49.4764 27.9868 49.4774 27.9861 49.4784ZM44.4443 38.1783L43.7477 37.7122L49.2665 33.6862C49.9994 33.1516 50.4464 32.3103 50.4794 31.4038C50.5124 30.4972 50.1276 29.6257 49.4355 29.0392L47.6235 27.5039C45.7457 25.9127 43.6934 24.5397 41.506 23.4112L39.3953 22.3223C38.1465 21.678 36.6168 22.0011 35.7352 23.0955L34.448 24.6934C32.2015 27.482 30.2064 30.4642 28.4861 33.6048L27.5004 35.4045C26.7642 36.7486 27.1763 38.4323 28.45 39.2845L29.1525 39.7545L24.2978 47.011C23.599 48.0556 23.6365 49.4277 24.3912 50.4326C25.146 51.4375 26.4534 51.8558 27.6513 51.4758L26.9803 49.3609L27.6513 51.4758L28.534 51.1957C34.0189 49.4555 39.1951 46.8612 43.8717 43.5083L44.523 43.0414C45.3118 42.4759 45.773 41.5596 45.7573 40.5892C45.7416 39.6188 45.2509 38.7179 44.4443 38.1783Z" fill="#F2D05D" stroke="black" stroke-width="4.4375" stroke-linejoin="round"/>
</svg>
